<svg width="52" height="50" viewBox="0 0 52 50" fill="none" xmlns="http://www.w3.org/2000/svg">
<rect x="0.5" y="0.5" width="51" height="49" rx="11.5" stroke="#212121"/>
<path d="M28.4998 17.5C28.9203 17.4999 29.3253 17.6587 29.6336 17.9446C29.9419 18.2305 30.1308 18.6224 30.1623 19.0417L30.1665 19.1667C30.1665 19.3708 30.2415 19.5678 30.3771 19.7203C30.5127 19.8728 30.6996 19.9703 30.9023 19.9942L30.9998 20H31.8332C32.4708 20 33.0844 20.2436 33.5484 20.6811C34.0123 21.1185 34.2916 21.7168 34.329 22.3533L34.3332 22.5V30C34.3332 30.6377 34.0896 31.2513 33.6521 31.7152C33.2146 32.1792 32.6164 32.4584 31.9798 32.4958L31.8332 32.5H20.1665C19.5288 32.5 18.9152 32.2564 18.4513 31.8189C17.9873 31.3815 17.7081 30.7832 17.6707 30.1467L17.6665 30V22.5C17.6665 21.8623 17.9101 21.2487 18.3476 20.7848C18.785 20.3208 19.3833 20.0416 20.0198 20.0042L20.1665 20H20.9998C21.2209 20 21.4328 19.9122 21.5891 19.7559C21.7454 19.5996 21.8332 19.3877 21.8332 19.1667C21.833 18.7462 21.9918 18.3412 22.2778 18.0329C22.5637 17.7246 22.9555 17.5357 23.3748 17.5042L23.4998 17.5H28.4998ZM25.9998 23.3333C25.3803 23.3333 24.7829 23.5633 24.3233 23.9787C23.8637 24.3941 23.5747 24.9653 23.5123 25.5817L23.5032 25.7083L23.4998 25.8333L23.5032 25.9583C23.5276 26.4469 23.6949 26.9175 23.9841 27.3119C24.2734 27.7063 24.6721 28.0072 25.1307 28.1773C25.5893 28.3474 26.0877 28.3792 26.5642 28.2688C27.0408 28.1584 27.4744 27.9107 27.8115 27.5563C28.1486 27.2018 28.3744 26.7563 28.4607 26.2749C28.5471 25.7934 28.4904 25.2972 28.2975 24.8477C28.1047 24.3982 27.7842 24.0151 27.3758 23.7459C26.9674 23.4767 26.489 23.3333 25.9998 23.3333Z" fill="white"/>
</svg>
