<svg width="32" height="32" viewBox="0 0 32 32" fill="none" xmlns="http://www.w3.org/2000/svg">
<g id="tabler:x">
<path id="icon" fill-rule="evenodd" clip-rule="evenodd" d="M7.05654 7.05715C7.57724 6.53645 8.42146 6.53645 8.94216 7.05715L15.9993 14.1143L23.0565 7.05715C23.5772 6.53645 24.4215 6.53645 24.9422 7.05715C25.4629 7.57785 25.4629 8.42207 24.9422 8.94277L17.885 16L24.9422 23.0572C25.4629 23.5779 25.4629 24.4221 24.9422 24.9428C24.4215 25.4635 23.5772 25.4635 23.0565 24.9428L15.9993 17.8856L8.94216 24.9428C8.42146 25.4635 7.57724 25.4635 7.05654 24.9428C6.53584 24.4221 6.53584 23.5779 7.05654 23.0572L14.1137 16L7.05654 8.94277C6.53584 8.42207 6.53584 7.57785 7.05654 7.05715Z" fill="white"/>
</g>
</svg>
