<svg width="24" height="24" viewBox="0 0 24 24" fill="none" xmlns="http://www.w3.org/2000/svg">
<g id="Component 8/devicon:google">
<path id="Vector" d="M8.86867 2.35428C6.80545 3.07003 5.02613 4.42855 3.79206 6.23029C2.558 8.03203 1.93424 10.182 2.0124 12.3645C2.09057 14.5469 2.86654 16.6468 4.22633 18.3556C5.58612 20.0645 7.45807 21.2922 9.56721 21.8585C11.2771 22.2998 13.0686 22.3191 14.7877 21.915C16.345 21.5652 17.7848 20.817 18.966 19.7436C20.1955 18.5923 21.0879 17.1276 21.5472 15.5072C22.0464 13.7449 22.1353 11.8918 21.807 10.0898H12.2049V14.073H17.7658C17.6546 14.7082 17.4165 15.3146 17.0655 15.8557C16.7146 16.3968 16.2581 16.8615 15.7234 17.222C15.0444 17.6714 14.2789 17.9736 13.4761 18.1093C12.671 18.2591 11.8452 18.2591 11.0401 18.1093C10.2241 17.9408 9.45209 17.604 8.77349 17.1204C7.68317 16.3486 6.86449 15.2521 6.43427 13.9875C5.9969 12.6991 5.9969 11.3024 6.43427 10.014C6.74051 9.11094 7.24676 8.2887 7.91524 7.60865C8.68023 6.81614 9.64873 6.24964 10.7145 5.97132C11.7802 5.693 12.9021 5.71361 13.9569 6.03089C14.7809 6.28372 15.5345 6.72568 16.1574 7.32149C16.7844 6.6977 17.4103 6.0723 18.0352 5.44528C18.3578 5.10811 18.7095 4.78707 19.0273 4.44183C18.0764 3.55699 16.9602 2.86843 15.7428 2.41558C13.5257 1.61055 11.0998 1.58892 8.86867 2.35428Z" fill="white"/>
<path id="Vector_2" d="M8.86916 2.35427C11.1001 1.58839 13.526 1.60945 15.7432 2.41396C16.9609 2.86988 18.0766 3.56176 19.0262 4.44989C18.7036 4.79513 18.3632 5.11778 18.0341 5.45333C17.4081 6.0782 16.7827 6.70092 16.1578 7.32148C15.535 6.72567 14.7814 6.28371 13.9574 6.03088C12.9029 5.71249 11.7811 5.69069 10.7151 5.96787C9.64904 6.24505 8.67995 6.8105 7.91411 7.60219C7.24564 8.28224 6.73938 9.10448 6.43315 10.0076L3.08887 7.41828C4.28592 5.04447 6.35853 3.22869 8.86916 2.35427Z" fill="#E33629"/>
<path id="Vector_3" d="M2.2015 9.98332C2.38112 9.09243 2.67955 8.2297 3.08879 7.41824L6.43307 10.014C5.9957 11.3023 5.9957 12.699 6.43307 13.9874C5.31885 14.8478 4.20409 15.7125 3.08879 16.5815C2.06462 14.5429 1.75226 12.2201 2.2015 9.98332Z" fill="#F8BD00"/>
<path id="Vector_4" d="M12.2053 10.0882H21.8074C22.1357 11.8901 22.0468 13.7433 21.5477 15.5055C21.0883 17.126 20.1959 18.5906 18.9665 19.7419C17.8872 18.8998 16.8031 18.0642 15.7238 17.222C16.2589 16.8611 16.7156 16.3959 17.0665 15.8542C17.4175 15.3125 17.6555 14.7056 17.7662 14.0697H12.2053C12.2037 12.7436 12.2053 11.4159 12.2053 10.0882Z" fill="#587DBD"/>
<path id="Vector_5" d="M3.08691 16.5816C4.20221 15.7212 5.31697 14.8565 6.43119 13.9875C6.86227 15.2526 7.68212 16.3491 8.77364 17.1204C9.45435 17.6017 10.228 17.9358 11.0451 18.1013C11.8502 18.251 12.676 18.251 13.4811 18.1013C14.2839 17.9656 15.0494 17.6633 15.7284 17.214C16.8077 18.0561 17.8918 18.8918 18.971 19.7339C17.7899 20.8079 16.3502 21.5567 14.7927 21.9069C13.0736 22.3111 11.2821 22.2917 9.5722 21.8505C8.21981 21.4894 6.95659 20.8528 5.86171 19.9807C4.70296 19.0605 3.75647 17.9011 3.08691 16.5816Z" fill="#319F43"/>
</g>
</svg>
