<svg width="32" height="32" viewBox="0 0 32 32" fill="none" xmlns="http://www.w3.org/2000/svg">
<g id="tabler:plus">
<path id="icon" fill-rule="evenodd" clip-rule="evenodd" d="M16.0002 5.33337C16.7365 5.33337 17.3335 5.93033 17.3335 6.66671V14.6667H25.3335C26.0699 14.6667 26.6668 15.2637 26.6668 16C26.6668 16.7364 26.0699 17.3334 25.3335 17.3334H17.3335V25.3334C17.3335 26.0698 16.7365 26.6667 16.0002 26.6667C15.2638 26.6667 14.6668 26.0698 14.6668 25.3334V17.3334H6.66683C5.93045 17.3334 5.3335 16.7364 5.3335 16C5.3335 15.2637 5.93045 14.6667 6.66683 14.6667H14.6668V6.66671C14.6668 5.93033 15.2638 5.33337 16.0002 5.33337Z" fill="white"/>
</g>
</svg>
