<svg width="200" height="200" viewBox="0 0 200 200" fill="none" xmlns="http://www.w3.org/2000/svg">
<g id="shine">
<path id="icon" fill-rule="evenodd" clip-rule="evenodd" d="M86.8156 52.3266C87.1612 52.6457 87.5867 52.8053 88.0919 52.8053C89.2087 52.8053 89.8336 52.207 89.9665 51.0104C90.2856 48.2982 90.618 46.1576 90.9637 44.5888C91.3359 43.0466 91.9209 41.8633 92.7186 41.039C93.5163 40.2413 94.7129 39.643 96.3083 39.2441C97.9038 38.8453 100.097 38.4464 102.889 38.0476C104.166 37.8614 104.804 37.2365 104.804 36.1729C104.804 35.1359 104.246 34.4977 103.129 34.2584C100.284 33.7266 98.0367 33.248 96.3881 32.8225C94.7661 32.3705 93.5429 31.7722 92.7186 31.0277C91.8943 30.2566 91.3093 29.1265 90.9637 27.6374C90.618 26.1218 90.2856 24.0078 89.9665 21.2956C89.8336 20.099 89.2087 19.5007 88.0919 19.5007C86.9751 19.5007 86.3502 20.0857 86.2173 21.2557C85.8716 24.0477 85.5126 26.2414 85.1404 27.8368C84.7947 29.4057 84.2097 30.5889 83.3854 31.3867C82.5877 32.1844 81.3778 32.7827 79.7558 33.1815C78.1338 33.5538 75.9002 33.9127 73.055 34.2584C72.5764 34.3382 72.1642 34.5509 71.8186 34.8966C71.4995 35.2423 71.3399 35.6677 71.3399 36.1729C71.3399 37.21 71.8983 37.8348 73.0151 38.0476C75.8869 38.606 78.1338 39.1112 79.7558 39.5632C81.4044 39.9887 82.6276 40.5869 83.4253 41.3581C84.223 42.1292 84.7947 43.2726 85.1404 44.7882C85.5126 46.3039 85.8716 48.4178 86.2173 51.13C86.2705 51.6087 86.4699 52.0075 86.8156 52.3266ZM41.6319 98.5425C40.874 98.5425 40.2359 98.3021 39.7173 97.8212C39.1988 97.3402 38.8997 96.7391 38.8199 96.0177C38.3014 91.9299 37.763 88.7438 37.2046 86.4594C36.686 84.175 35.8285 82.4517 34.6319 81.2895C33.4354 80.1273 31.6006 79.2256 29.1277 78.5843C26.6947 77.903 23.3244 77.1416 19.0167 76.3C17.3415 75.9794 16.5039 75.0376 16.5039 73.4746C16.5039 72.7131 16.7432 72.0719 17.2218 71.5509C17.7404 71.0299 18.3586 70.7093 19.0765 70.589C23.3443 70.068 26.6947 69.527 29.1277 68.9659C31.5607 68.3648 33.3755 67.4631 34.5721 66.2607C35.8086 65.0584 36.686 63.275 37.2046 60.9105C37.763 58.5059 38.3014 55.1996 38.8199 50.9915C39.0194 49.2281 39.9567 48.3465 41.6319 48.3465C43.3071 48.3465 44.2444 49.2482 44.4438 51.0516C44.9224 55.1395 45.421 58.3256 45.9395 60.6099C46.458 62.8542 47.3355 64.5575 48.572 65.7197C49.8084 66.8419 51.6432 67.7436 54.0762 68.4249C56.5491 69.0661 59.9194 69.7875 64.1872 70.589C65.8624 70.9497 66.7 71.9116 66.7 73.4746C66.7 75.0776 65.7427 76.0194 63.8282 76.3C59.6402 76.9011 56.3497 77.5023 53.9565 78.1034C51.5634 78.7046 49.7685 79.6063 48.572 80.8086C47.3754 82.051 46.4979 83.8344 45.9395 86.1588C45.421 88.5234 44.9224 91.7495 44.4438 95.8374C44.2444 97.6408 43.3071 98.5425 41.6319 98.5425ZM128.398 174.229C126.743 174.229 125.348 173.706 124.215 172.66C123.083 171.615 122.429 170.308 122.255 168.739C121.122 159.85 119.945 152.922 118.725 147.955C117.592 142.987 115.719 139.24 113.104 136.713C110.49 134.185 106.481 132.225 101.078 130.83C95.7623 129.349 88.3985 127.693 78.9867 125.863C75.3266 125.166 73.4965 123.118 73.4965 119.719C73.4965 118.063 74.0194 116.669 75.0651 115.536C76.198 114.403 77.5488 113.706 79.1174 113.445C88.442 112.312 95.7623 111.135 101.078 109.915C106.394 108.608 110.359 106.647 112.974 104.033C115.675 101.419 117.592 97.5406 118.725 92.399C119.945 87.1702 121.122 79.9807 122.255 70.8304C122.69 66.9959 124.738 65.0787 128.398 65.0787C132.059 65.0787 134.107 67.0395 134.542 70.9611C135.588 79.85 136.677 86.7781 137.81 91.7454C138.943 96.6256 140.86 100.329 143.562 102.857C146.263 105.297 150.272 107.257 155.588 108.739C160.991 110.133 168.355 111.702 177.68 113.445C181.34 114.229 183.17 116.321 183.17 119.719C183.17 123.205 181.078 125.253 176.895 125.863C167.745 127.17 160.555 128.477 155.327 129.785C150.098 131.092 146.176 133.053 143.562 135.667C140.947 138.368 139.03 142.246 137.81 147.301C136.677 152.443 135.588 159.458 134.542 168.347C134.107 172.268 132.059 174.229 128.398 174.229Z" fill="white"/>
</g>
</svg>
