<svg width="80" height="36" viewBox="0 0 80 36" fill="none" xmlns="http://www.w3.org/2000/svg">
<rect width="80" height="36" rx="12" fill="#3E007B"/>
<path d="M12.8849 23V12.8182H16.902C17.6742 12.8182 18.3321 12.9657 18.8757 13.2607C19.4193 13.5523 19.8336 13.9583 20.1186 14.4787C20.407 14.9957 20.5511 15.5923 20.5511 16.2685C20.5511 16.9446 20.4053 17.5412 20.1136 18.0582C19.822 18.5753 19.3994 18.978 18.8459 19.2663C18.2957 19.5547 17.6295 19.6989 16.8473 19.6989H14.2869V17.9737H16.4993C16.9136 17.9737 17.255 17.9025 17.5234 17.7599C17.7952 17.6141 17.9974 17.4136 18.13 17.1584C18.2659 16.8999 18.3338 16.6032 18.3338 16.2685C18.3338 15.9304 18.2659 15.6354 18.13 15.3835C17.9974 15.1283 17.7952 14.9311 17.5234 14.7919C17.2517 14.6494 16.907 14.5781 16.4893 14.5781H15.0376V23H12.8849ZM24.0275 12.8182V23H21.9096V12.8182H24.0275ZM30.6211 19.7486V15.3636H32.739V23H30.7056V21.6129H30.6261C30.4537 22.0604 30.167 22.42 29.766 22.6918C29.3683 22.9635 28.8827 23.0994 28.3093 23.0994C27.7989 23.0994 27.3498 22.9834 26.962 22.7514C26.5742 22.5194 26.271 22.1896 26.0522 21.7621C25.8368 21.3345 25.7274 20.8224 25.7241 20.2259V15.3636H27.842V19.848C27.8453 20.2988 27.9663 20.6551 28.2049 20.9169C28.4435 21.1787 28.7634 21.3097 29.1644 21.3097C29.4196 21.3097 29.6583 21.2517 29.8803 21.1357C30.1024 21.0163 30.2814 20.8407 30.4173 20.6087C30.5565 20.3767 30.6244 20.09 30.6211 19.7486ZM40.7868 17.5412L38.8478 17.6605C38.8147 17.4948 38.7434 17.3456 38.6341 17.2131C38.5247 17.0772 38.3805 16.9695 38.2015 16.8899C38.0259 16.8071 37.8154 16.7656 37.5701 16.7656C37.242 16.7656 36.9653 16.8352 36.7399 16.9744C36.5145 17.1103 36.4018 17.2926 36.4018 17.5213C36.4018 17.7036 36.4747 17.8577 36.6206 17.9837C36.7664 18.1096 37.0166 18.2107 37.3713 18.2869L38.7534 18.5653C39.4958 18.7178 40.0493 18.9631 40.4139 19.3011C40.7785 19.6392 40.9608 20.0833 40.9608 20.6335C40.9608 21.134 40.8133 21.5732 40.5183 21.951C40.2266 22.3288 39.8256 22.6238 39.3152 22.8359C38.8081 23.0447 38.2231 23.1491 37.5602 23.1491C36.5493 23.1491 35.7439 22.9387 35.144 22.5178C34.5474 22.0935 34.1977 21.5168 34.095 20.7876L36.1781 20.6783C36.2411 20.9865 36.3935 21.2218 36.6355 21.3842C36.8774 21.5433 37.1873 21.6229 37.5652 21.6229C37.9364 21.6229 38.2347 21.5516 38.46 21.4091C38.6887 21.2633 38.8047 21.076 38.8081 20.8473C38.8047 20.6551 38.7235 20.4976 38.5645 20.375C38.4054 20.2491 38.1601 20.1529 37.8287 20.0866L36.5062 19.8232C35.7605 19.674 35.2053 19.4155 34.8407 19.0476C34.4795 18.6797 34.2988 18.2107 34.2988 17.6406C34.2988 17.1501 34.4314 16.7275 34.6966 16.3729C34.965 16.0182 35.3412 15.7448 35.8251 15.5526C36.3123 15.3603 36.8824 15.2642 37.5353 15.2642C38.4998 15.2642 39.2588 15.468 39.8123 15.8757C40.3691 16.2834 40.694 16.8385 40.7868 17.5412Z" fill="white"/>
<path fill-rule="evenodd" clip-rule="evenodd" d="M52.373 27.3657L52.7683 22.0889L47.2144 19.8422C46.9018 19.7157 46.8465 19.2383 47.1173 19.002L52.518 14.2885L53.6686 8.43362C53.7478 8.03109 54.1973 7.90025 54.4163 8.21604L58.1123 13.5433C58.2231 13.703 58.2313 13.9296 58.132 14.1066C57.1185 15.912 55.4252 17.088 55.4252 17.088C58.0693 16.5483 62.3478 13.7145 64.3056 12.3435C64.6543 12.0992 65.0627 12.4899 64.9107 12.923C61.5964 22.3624 55.0572 26.6573 52.9697 27.8266C52.6748 27.9919 52.3452 27.7365 52.373 27.3657ZM60.5597 22.068C61.24 21.468 61.9768 20.4864 62.3188 20.0091C62.4273 19.8578 62.6617 19.844 62.7977 19.9757C64.0155 21.1559 64.4973 23.4041 64.6644 24.4824C64.701 24.718 64.4087 24.8792 64.1924 24.7434L60.5981 22.4871C60.4421 22.3891 60.4237 22.1879 60.5597 22.068Z" fill="white"/>
</svg>
