<svg width="48" height="48" viewBox="0 0 48 48" fill="none" xmlns="http://www.w3.org/2000/svg">
<rect x="0.6" y="0.6" width="46.8" height="46.8" rx="17.4" fill="#0E0E0E"/>
<rect x="0.6" y="0.6" width="46.8" height="46.8" rx="17.4" stroke="#212121" stroke-width="1.2"/>
<path d="M14 16.8571H16.8571V22.5714H19.7143V16.8571H22.5714V31.1428H19.7143V25.4285H16.8571V31.1428H14V16.8571ZM25.4286 16.8571H29.7143C30.8509 16.8571 31.941 17.3086 32.7447 18.1124C33.5485 18.9161 34 20.0062 34 21.1428V26.8571C34 27.9938 33.5485 29.0838 32.7447 29.8876C31.941 30.6913 30.8509 31.1428 29.7143 31.1428H25.4286V16.8571ZM29.7143 28.2857C30.0932 28.2857 30.4565 28.1352 30.7244 27.8673C30.9923 27.5994 31.1429 27.236 31.1429 26.8571V21.1428C31.1429 20.764 30.9923 20.4006 30.7244 20.1327C30.4565 19.8648 30.0932 19.7143 29.7143 19.7143H28.2857V28.2857H29.7143Z" fill="white"/>
</svg>
