<svg width="119" height="119" viewBox="0 0 119 119" fill="none" xmlns="http://www.w3.org/2000/svg">
<g id="icon-park:star-one">
<path id="icon" fill-rule="evenodd" clip-rule="evenodd" d="M41.5175 105.938L43.4778 79.7741L15.9396 68.6341C14.3894 68.0071 14.1155 65.6398 15.4582 64.4684L42.2367 41.097L47.9419 12.0667C48.3341 10.0709 50.563 9.42212 51.6491 10.9879L69.9751 37.4021C70.5244 38.1942 70.5652 39.3175 70.0727 40.1951C65.0474 49.1469 56.6517 54.9782 56.6517 54.9782C69.7619 52.3018 90.9763 38.251 100.683 31.453C102.412 30.2419 104.437 32.1794 103.684 34.3263C87.2505 81.1303 54.827 102.426 44.4761 108.224C43.0142 109.043 41.3797 107.777 41.5175 105.938ZM82.1086 79.6705C85.4817 76.6958 89.1348 71.8282 90.8305 69.462C91.3684 68.7118 92.5307 68.6432 93.2053 69.2964C99.2435 75.1479 101.632 86.2953 102.461 91.6419C102.642 92.8099 101.193 93.6092 100.12 92.936L82.2989 81.7484C81.5251 81.2626 81.4343 80.2652 82.1086 79.6705Z" fill="#6F07D7"/>
</g>
</svg>
