<svg width="48" height="48" viewBox="0 0 48 48" fill="none" xmlns="http://www.w3.org/2000/svg">
<rect x="0.6" y="0.6" width="46.8" height="46.8" rx="17.4" fill="#0E0E0E"/>
<rect x="0.6" y="0.6" width="46.8" height="46.8" rx="17.4" stroke="#212121" stroke-width="1.2"/>
<path d="M24 30.0074L28.8499 32.9407C29.738 33.4783 30.8249 32.6836 30.5911 31.6786L29.3056 26.1626L33.5945 22.4463C34.3775 21.7685 33.9568 20.483 32.9284 20.4012L27.2839 19.9221L25.0751 14.7099C24.6778 13.7634 23.3222 13.7634 22.9249 14.7099L20.7161 19.9104L15.0716 20.3895C14.0432 20.4713 13.6225 21.7568 14.4055 22.4347L18.6944 26.1509L17.4089 31.6669C17.1751 32.6719 18.262 33.4666 19.1501 32.929L24 30.0074Z" fill="white"/>
</svg>
