<svg width="20" height="20" viewBox="0 0 20 20" fill="none" xmlns="http://www.w3.org/2000/svg">
<g id="shine" clip-path="url(#clip0_60_467)">
<path id="icon" fill-rule="evenodd" clip-rule="evenodd" d="M8.41794 4.27916C8.45942 4.31745 8.51047 4.3366 8.5711 4.3366C8.70511 4.3366 8.7801 4.2648 8.79605 4.12122C8.83434 3.79575 8.87423 3.53889 8.91571 3.35063C8.96038 3.16556 9.03058 3.02356 9.12631 2.92465C9.22203 2.82892 9.36562 2.75713 9.55707 2.70926C9.74852 2.6614 10.0118 2.61354 10.3468 2.56568C10.5 2.54334 10.5765 2.46836 10.5765 2.34072C10.5765 2.21628 10.5095 2.1397 10.3755 2.11098C10.0341 2.04716 9.76448 1.98973 9.56664 1.93867C9.372 1.88443 9.22522 1.81264 9.12631 1.72329C9.02739 1.63076 8.95719 1.49515 8.91571 1.31646C8.87423 1.13458 8.83434 0.880907 8.79605 0.55544C8.7801 0.411852 8.70511 0.340057 8.5711 0.340057C8.43708 0.340057 8.3621 0.410256 8.34614 0.550654C8.30466 0.885693 8.26159 1.14894 8.21691 1.34039C8.17543 1.52865 8.10523 1.67064 8.00632 1.76637C7.91059 1.86209 7.76541 1.93389 7.57077 1.98175C7.37612 2.02642 7.10809 2.0695 6.76667 2.11098C6.70924 2.12055 6.65978 2.14608 6.6183 2.18756C6.58001 2.22904 6.56086 2.28009 6.56086 2.34072C6.56086 2.46516 6.62787 2.54015 6.76189 2.56568C7.1065 2.63268 7.37612 2.69331 7.57077 2.74755C7.7686 2.79861 7.91538 2.8704 8.0111 2.96294C8.10683 3.05547 8.17543 3.19268 8.21691 3.37456C8.26159 3.55644 8.30466 3.81011 8.34614 4.13558C8.35252 4.19301 8.37646 4.24087 8.41794 4.27916ZM2.99582 9.82511C2.90488 9.82511 2.8283 9.79625 2.76608 9.73854C2.70386 9.68083 2.66796 9.60869 2.65839 9.52213C2.59617 9.03159 2.53155 8.64926 2.46455 8.37513C2.40232 8.10101 2.29942 7.89421 2.15583 7.75474C2.01224 7.61528 1.79207 7.50707 1.49533 7.43012C1.20336 7.34837 0.798922 7.25699 0.282004 7.156C0.0809805 7.11752 -0.0195312 7.00451 -0.0195312 6.81695C-0.0195312 6.72557 0.00918639 6.64863 0.0666217 6.58611C0.128843 6.52359 0.203031 6.48511 0.289183 6.47069C0.801315 6.40817 1.20336 6.34324 1.49533 6.27591C1.78729 6.20378 2.00506 6.09557 2.14865 5.95129C2.29703 5.80702 2.40232 5.59301 2.46455 5.30926C2.53155 5.02071 2.59617 4.62395 2.65839 4.11899C2.68232 3.90738 2.7948 3.80158 2.99582 3.80158C3.19685 3.80158 3.30932 3.90978 3.33326 4.1262C3.39069 4.61674 3.45052 4.99907 3.51274 5.27319C3.57496 5.54251 3.68026 5.7469 3.82863 5.88637C3.97701 6.02103 4.19718 6.12923 4.48914 6.21099C4.78589 6.28794 5.19033 6.3745 5.70246 6.47069C5.90349 6.51397 6.004 6.62939 6.004 6.81695C6.004 7.00932 5.88913 7.12233 5.65939 7.156C5.15683 7.22814 4.76196 7.30027 4.47478 7.37241C4.1876 7.44455 3.97222 7.55276 3.82863 7.69703C3.68505 7.84612 3.57975 8.06013 3.51274 8.33906C3.45052 8.62281 3.39069 9.00995 3.33326 9.50049C3.30932 9.7169 3.19685 9.82511 2.99582 9.82511ZM13.4079 18.9075C13.2092 18.9075 13.0419 18.8447 12.906 18.7192C12.77 18.5937 12.6916 18.4369 12.6707 18.2486C12.5347 17.182 12.3935 16.3506 12.2471 15.7545C12.1112 15.1584 11.8864 14.7088 11.5726 14.4055C11.2589 14.1022 10.7779 13.8669 10.1295 13.6996C9.49158 13.5218 8.60792 13.3231 7.47851 13.1035C7.03929 13.0199 6.81968 12.7741 6.81968 12.3663C6.81968 12.1676 6.88243 12.0003 7.00792 11.8643C7.14387 11.7284 7.30596 11.6447 7.49419 11.6133C8.61315 11.4774 9.49158 11.3362 10.1295 11.1898C10.7674 11.0329 11.2432 10.7977 11.5569 10.4839C11.8811 10.1702 12.1112 9.70485 12.2471 9.08785C12.3935 8.4604 12.5347 7.59766 12.6707 6.49962C12.723 6.03949 12.9687 5.80942 13.4079 5.80942C13.8471 5.80942 14.0929 6.04471 14.1452 6.5153C14.2707 7.58197 14.4014 8.41334 14.5373 9.00942C14.6733 9.59504 14.9033 10.0395 15.2275 10.3428C15.5517 10.6356 16.0328 10.8709 16.6707 11.0486C17.319 11.216 18.2027 11.4042 19.3216 11.6133C19.7609 11.7075 19.9805 11.9584 19.9805 12.3663C19.9805 12.7846 19.7295 13.0303 19.2275 13.1035C18.1295 13.2604 17.2667 13.4173 16.6393 13.5741C16.0118 13.731 15.5413 13.9663 15.2275 14.28C14.9138 14.6042 14.6837 15.0696 14.5373 15.6761C14.4014 16.2931 14.2707 17.1349 14.1452 18.2016C14.0929 18.6722 13.8471 18.9075 13.4079 18.9075Z" fill="#0E0E0E"/>
</g>
<defs>
<clipPath id="clip0_60_467">
<rect width="20" height="20" fill="white"/>
</clipPath>
</defs>
</svg>
